<mxfile host="app.diagrams.net" modified="2023-07-12T15:20:53.297Z" agent="Mozilla/5.0 (Macintosh; Intel Mac OS X 10_15_7) AppleWebKit/537.36 (KHTML, like Gecko) Chrome/114.0.0.0 Safari/537.36" version="21.6.1" etag="CM2mzv1CI7OQwA3awNId" type="github">
  <diagram name="第 1 页" id="wsBCTN-mYFiwft33BqTL">
    <mxGraphModel>
      <root>
        <mxCell id="0" />
        <mxCell id="1" parent="0" />
      </root>
    </mxGraphModel>
  </diagram>
</mxfile>
